<?xml version="1.0" encoding="iso-8859-1"?>
<!-- Generator: Adobe Illustrator 18.0.0, SVG Export Plug-In . SVG Version: 6.00 Build 0)  -->
<!DOCTYPE svg PUBLIC "-//W3C//DTD SVG 1.1//EN" "http://www.w3.org/Graphics/SVG/1.1/DTD/svg11.dtd">
<svg xmlns="http://www.w3.org/2000/svg" xmlns:xlink="http://www.w3.org/1999/xlink" version="1.1" id="Capa_1" x="0px" y="0px" viewBox="0 0 460.48 460.48" style="enable-background:new 0 0 460.48 460.48;" xml:space="preserve" width="512px" height="512px">
<g>
	<path d="M443.001,6.271c-0.098-2.756-1.923-5.15-4.555-5.974c-2.63-0.824-5.496,0.103-7.146,2.311   c-9.624,12.87-20.678,25.569-32.854,37.745h-0.001c-24.875,24.877-51.954,45.028-76.246,56.743   c-0.657,0.317-1.257,0.742-1.772,1.259l-98.514,98.513c-12.121-6.648-27.675-4.852-37.93,5.405L26.346,359.909   c-5.795,5.795-8.986,13.5-8.986,21.695c0,8.195,3.191,15.9,8.986,21.695l4.981,4.98c4.309,4.309,9.967,6.463,15.627,6.463   c5.659,0,11.32-2.155,15.629-6.463L203.462,267.4l6.979,6.978L69.562,415.257c-8.618,8.617-8.618,22.639,0,31.257l4.979,4.98   c5.795,5.795,13.5,8.986,21.695,8.986s15.899-3.191,21.695-8.986l157.636-157.636c10.256-10.257,12.052-25.81,5.405-37.932   l105.149-105.149C424.169,112.731,444.9,60.06,443.001,6.271z M53.392,399.086c-3.551,3.549-9.324,3.549-12.873,0l-4.979-4.98   c-6.895-6.894-6.895-18.111,0-25.005l157.635-157.636c3.689-3.689,8.534-5.533,13.38-5.533s9.69,1.844,13.38,5.533l10.539,10.539   L53.392,399.086z M212.654,258.208l27.011-27.011l6.978,6.978l-27.011,27.011L212.654,258.208z M266.374,284.666L108.738,442.302   c-6.893,6.894-18.111,6.894-25.004,0l-4.981-4.98c-1.719-1.719-2.665-4.005-2.665-6.436c0-2.431,0.946-4.717,2.665-6.436   l177.083-177.082l0.497,0.497l10.041,10.042C273.752,265.284,273.752,277.288,266.374,284.666z M272.684,245.831l-40.675-40.674   l96.838-96.837c25.311-12.395,53.246-33.229,78.792-58.774h-0.001c7.818-7.817,15.193-15.849,22.052-24.009   c-3.013,43.502-21.706,84.995-52.76,116.05L272.684,245.831z" fill="#34495e"/>
	<path d="M160.704,258.669c-2.54,2.53-2.54,6.65,0,9.19c1.27,1.27,2.93,1.9,4.59,1.9s3.33-0.63,4.6-1.9c2.54-2.54,2.54-6.66,0-9.19   C167.354,256.129,163.234,256.129,160.704,258.669z" fill="#34495e"/>
	<path d="M199.244,220.119c-2.54,2.54-2.54,6.66,0,9.2c1.27,1.27,2.93,1.9,4.59,1.9c1.67,0,3.33-0.63,4.6-1.9   c2.54-2.54,2.54-6.66,0-9.2C205.894,217.589,201.774,217.589,199.244,220.119z" fill="#34495e"/>
	<path d="M141.424,277.939c-2.53,2.53-2.53,6.65,0,9.19c1.271,1.27,2.94,1.9,4.601,1.9c1.659,0,3.329-0.63,4.6-1.9   c2.53-2.54,2.53-6.66,0-9.19C148.084,275.399,143.964,275.399,141.424,277.939z" fill="#34495e"/>
	<path d="M179.974,239.399c-2.54,2.53-2.54,6.65,0,9.19c1.271,1.27,2.931,1.9,4.59,1.9c1.66,0,3.33-0.63,4.601-1.9   c2.54-2.54,2.54-6.66,0-9.19C186.624,236.859,182.504,236.859,179.974,239.399z" fill="#34495e"/>
	<path d="M64.344,355.019c-2.54,2.54-2.54,6.66,0,9.19c1.271,1.27,2.931,1.91,4.601,1.91c1.659,0,3.319-0.64,4.59-1.91   c2.54-2.53,2.54-6.65,0-9.19S66.884,352.479,64.344,355.019z" fill="#34495e"/>
	<path d="M45.074,374.289c-2.54,2.54-2.54,6.66,0,9.19c1.27,1.27,2.93,1.91,4.6,1.91c1.66,0,3.32-0.64,4.59-1.91   c2.54-2.53,2.54-6.65,0-9.19C51.724,371.749,47.614,371.749,45.074,374.289z" fill="#34495e"/>
	<path d="M102.884,316.479c-2.54,2.54-2.54,6.65,0,9.19c1.271,1.27,2.93,1.9,4.601,1.9c1.659,0,3.319-0.63,4.59-1.9   c2.54-2.54,2.54-6.65,0-9.19C109.544,313.939,105.424,313.939,102.884,316.479z" fill="#34495e"/>
	<path d="M83.614,335.749c-2.54,2.54-2.54,6.65,0,9.19c1.27,1.27,2.93,1.91,4.6,1.91c1.66,0,3.32-0.64,4.59-1.91   c2.54-2.54,2.54-6.65,0-9.19S86.154,333.209,83.614,335.749z" fill="#34495e"/>
	<path d="M122.154,297.209c-2.54,2.54-2.54,6.65,0,9.19c1.27,1.27,2.939,1.9,4.6,1.9c1.66,0,3.33-0.63,4.6-1.9   c2.53-2.54,2.53-6.65,0-9.19C128.813,294.669,124.694,294.669,122.154,297.209z" fill="#34495e"/>
	<path d="M229.254,288.679c-2.54,2.54-2.54,6.65,0,9.19c1.271,1.27,2.93,1.9,4.59,1.9c1.67,0,3.33-0.63,4.601-1.9   c2.54-2.54,2.54-6.65,0-9.19S231.794,286.139,229.254,288.679z" fill="#34495e"/>
	<path d="M209.984,307.949c-2.54,2.54-2.54,6.65,0,9.19c1.27,1.27,2.93,1.9,4.59,1.9c1.67,0,3.33-0.63,4.6-1.9   c2.54-2.54,2.54-6.65,0-9.19S212.524,305.409,209.984,307.949z" fill="#34495e"/>
	<path d="M190.704,327.219c-2.53,2.54-2.53,6.65,0,9.19c1.27,1.27,2.939,1.9,4.6,1.9c1.67,0,3.33-0.63,4.601-1.9   c2.54-2.54,2.54-6.65,0-9.19S193.254,324.679,190.704,327.219z" fill="#34495e"/>
	<path d="M248.524,269.409c-2.54,2.54-2.54,6.65,0,9.19c1.27,1.27,2.93,1.9,4.6,1.9c1.66,0,3.32-0.63,4.59-1.9   c2.54-2.54,2.54-6.65,0-9.19C255.174,266.869,251.063,266.869,248.524,269.409z" fill="#34495e"/>
	<path d="M152.164,365.759c-2.53,2.54-2.53,6.65,0,9.19c1.27,1.27,2.939,1.91,4.6,1.91s3.33-0.64,4.601-1.91   c2.529-2.54,2.529-6.65,0-9.19C158.824,363.219,154.704,363.219,152.164,365.759z" fill="#34495e"/>
	<path d="M132.894,385.029c-2.54,2.54-2.54,6.66,0,9.19c1.271,1.27,2.94,1.91,4.601,1.91s3.33-0.64,4.6-1.91   c2.53-2.53,2.53-6.65,0-9.19C139.554,382.489,135.434,382.489,132.894,385.029z" fill="#34495e"/>
	<path d="M113.624,404.299c-2.54,2.54-2.54,6.66,0,9.2c1.27,1.27,2.93,1.9,4.6,1.9c1.66,0,3.32-0.63,4.59-1.9   c2.54-2.54,2.54-6.66,0-9.2C120.284,401.759,116.164,401.759,113.624,404.299z" fill="#34495e"/>
	<path d="M94.354,423.569c-2.54,2.54-2.54,6.66,0,9.2c1.271,1.27,2.931,1.9,4.601,1.9c1.66,0,3.32-0.63,4.6-1.9   c2.53-2.54,2.53-6.66,0-9.2C101.004,421.039,96.894,421.039,94.354,423.569z" fill="#34495e"/>
	<path d="M171.444,346.489c-2.54,2.54-2.54,6.65,0,9.19c1.27,1.27,2.93,1.91,4.59,1.91c1.67,0,3.33-0.64,4.6-1.91   c2.54-2.54,2.54-6.65,0-9.19S173.974,343.949,171.444,346.489z" fill="#34495e"/>
	<path d="M334.147,111.621l-18,17.999c-2.539,2.538-2.539,6.654-0.001,9.192c1.27,1.269,2.933,1.904,4.597,1.904   c1.663,0,3.327-0.635,4.596-1.904l18-17.999c2.539-2.538,2.539-6.654,0.001-9.192C340.802,109.083,336.686,109.082,334.147,111.621   z" fill="#34495e"/>
</g>
<g>
</g>
<g>
</g>
<g>
</g>
<g>
</g>
<g>
</g>
<g>
</g>
<g>
</g>
<g>
</g>
<g>
</g>
<g>
</g>
<g>
</g>
<g>
</g>
<g>
</g>
<g>
</g>
<g>
</g>
</svg>
